<?xml version="1.0" standalone="no"?><!DOCTYPE svg PUBLIC "-//W3C//DTD SVG 1.1//EN" "http://www.w3.org/Graphics/SVG/1.1/DTD/svg11.dtd"><svg t="1681280940431" class="icon" viewBox="0 0 1079 1024" version="1.1" xmlns="http://www.w3.org/2000/svg" p-id="4634" xmlns:xlink="http://www.w3.org/1999/xlink" width="210.7421875" height="200"><path d="M938.165638 1024h-796.952905c-77.836672 0-141.156411-61.953936-141.156411-138.284001l0.352011-5.294246 74.401045-578.297752c1.59109-74.922021 64.263128-135.397511 141.100089-135.397511h647.531276c76.836961 0 139.509 60.545892 141.100089 135.397511l74.753056 583.591998c0 76.330065-63.319739 138.284001-141.12825 138.284001zM83.074596 887.982949c1.26724 29.42812 26.837319 52.998776 58.081815 52.998777h796.952905c31.244496 0 56.786415-23.570657 58.053654-52.998777l-74.626332-582.930216c0-30.484153-26.048814-55.265727-58.109976-55.265727H215.923548c-32.047081 0-58.109976 24.781574-58.109976 55.265727l-0.352011 5.294245z" fill="#77BD5B" p-id="4635"></path><path d="M539.646944 246.759711a41.523218 41.523218 0 0 1-41.509137-41.509137V47.310278a41.537298 41.537298 0 0 1 83.074596 0V205.194252a41.523218 41.523218 0 0 1-41.565459 41.565459z" fill="#77BD5B" p-id="4636"></path><path d="M852.683286 83.074596H226.610602a41.537298 41.537298 0 0 1 0-83.074596h626.072684a41.537298 41.537298 0 1 1 0 83.074596z" fill="#77BD5B" p-id="4637"></path><path d="M290.592121 450.165748l498.137807 0 0 193.563809-498.137807 0 0-193.563809Z" fill="#EEE82C" p-id="4638"></path><path d="M733.365638 685.252774H345.92825a96.97199 96.97199 0 0 1-96.859347-96.859347v-82.849309a96.97199 96.97199 0 0 1 96.859347-96.859347h387.437388a96.97199 96.97199 0 0 1 96.859347 96.859347v82.86339a96.97199 96.97199 0 0 1-96.859347 96.845266zM345.92825 491.759367a14.08044 14.08044 0 0 0-13.841072 13.841073v82.863389a14.08044 14.08044 0 0 0 13.841072 13.841073h387.437388a14.08044 14.08044 0 0 0 13.841072-13.841073v-82.919711a14.08044 14.08044 0 0 0-13.841072-13.841072z" fill="#77BD5B" p-id="4639"></path></svg>